<svg class="css-8aabad"><path xmlns="http://www.w3.org/2000/svg" fill="#14213d" d="M59.445 16.843c-1.626-2.823-5.273-4.182-10.117-4.182-2.242 0-4.739.29-7.41.871A38.303 38.303 0 0 0 40.244 9.2a2.91 2.91 0 0 0 .883-2.811 2.91 2.91 0 0 0-2.823-2.242c-.22 0-.441.023-.662.07-.081.023-.174.046-.256.092C35.297 1.57 32.857 0 30.28 0c-4.763 0-8.991 5.32-11.64 13.532-2.671-.58-5.168-.87-7.41-.87-4.844 0-8.491 1.358-10.117 4.18-2.382 4.124.104 10.443 5.9 16.843-1.335 1.464-2.485 2.916-3.438 4.345a2.905 2.905 0 0 0-3.578 2.823c0 .859.372 1.637.976 2.16-1.022 2.88-1.045 5.47.14 7.515 1.626 2.823 5.273 4.182 10.117 4.182 2.242 0 4.739-.29 7.41-.871 2.649 8.212 6.877 13.532 11.64 13.532 4.762 0 8.99-5.32 11.638-13.532 1 .22 1.987.395 2.94.534 0 .012.01.035.01.046a2.924 2.924 0 0 0 2.835 2.254c.21 0 .43-.023.65-.081a2.89 2.89 0 0 0 2.103-1.905c4.286-.198 7.492-1.557 8.99-4.159 2.382-4.123-.104-10.442-5.9-16.843 5.796-6.4 8.282-12.719 5.9-16.842zm-10.117-2.44c4.321 0 7.388 1.174 8.62 3.31 1.823 3.172-.175 8.724-5.565 14.718-2.277-2.335-4.971-4.67-8.015-6.888-.395-3.729-1.057-7.214-1.94-10.326 2.475-.535 4.798-.814 6.9-.814zm-4.75 13.451c2.555 1.929 4.773 3.892 6.644 5.831-1.87 1.94-4.09 3.903-6.645 5.832.151-1.894.221-3.845.221-5.832 0-1.986-.07-3.937-.22-5.83zm-1.522 5.831c0 2.51-.116 4.914-.326 7.19a75.842 75.842 0 0 1-6.063 3.88 75.669 75.669 0 0 1-6.388 3.287 75.669 75.669 0 0 1-6.39-3.287 73.266 73.266 0 0 1-6.062-3.903 78.377 78.377 0 0 1-.326-7.167c0-2.497.116-4.89.326-7.166a73.277 73.277 0 0 1 6.063-3.903 75.628 75.628 0 0 1 6.389-3.287 75.628 75.628 0 0 1 6.388 3.287 75.842 75.842 0 0 1 6.063 3.88 78.7 78.7 0 0 1 .326 7.19zm-.581-9.478a81.31 81.31 0 0 0-4.937-3.101 72.86 72.86 0 0 0-5.134-2.707c2.858-1.185 5.669-2.125 8.352-2.8.732 2.568 1.324 5.46 1.719 8.608zM30.279 1.742c1.94 0 3.902 1.255 5.703 3.566a2.887 2.887 0 0 0-.511 2.393 2.91 2.91 0 0 0 2.822 2.254c.128 0 .267-.012.395-.035a36.06 36.06 0 0 1 1.568 4.007c-3.16.79-6.528 1.963-9.977 3.485-3.45-1.522-6.819-2.695-9.978-3.485 2.497-7.666 6.319-12.185 9.978-12.185zM19.8 15.6c2.683.674 5.494 1.614 8.352 2.8a72.849 72.849 0 0 0-5.134 2.706 81.296 81.296 0 0 0-4.937 3.101c.395-3.148.987-6.04 1.72-8.607zM5.91 29.632c-3.636-4.902-4.844-9.235-3.3-11.918 1.232-2.137 4.299-3.31 8.62-3.31 2.102 0 4.425.278 6.9.813-.883 3.112-1.545 6.597-1.94 10.326-3.044 2.218-5.727 4.542-7.992 6.865a37.534 37.534 0 0 1-2.288-2.776zm10.059 9.861c-2.45-1.87-4.658-3.821-6.586-5.808 1.928-1.986 4.135-3.937 6.586-5.807-.14 1.881-.21 3.833-.21 5.807s.07 3.927.21 5.808zm-4.74 13.474c-4.32 0-7.387-1.173-8.618-3.31-.871-1.51-.871-3.554-.046-5.924.116.012.22.023.336.023 1.603 0 2.904-1.3 2.904-2.904 0-.743-.279-1.405-.732-1.928.256-.395.535-.79.837-1.185a37.554 37.554 0 0 1 2.288-2.776c2.265 2.323 4.948 4.646 7.992 6.865.395 3.729 1.057 7.213 1.94 10.326-2.475.535-4.798.813-6.9.813zm6.854-9.803a81.319 81.319 0 0 0 4.937 3.101 72.849 72.849 0 0 0 5.134 2.707c-2.858 1.184-5.669 2.125-8.352 2.8-.732-2.568-1.324-5.46-1.719-8.608zm12.197 22.465c-3.66 0-7.481-4.519-9.978-12.185 3.16-.79 6.528-1.963 9.978-3.485 3.45 1.522 6.818 2.695 9.977 3.485-2.497 7.666-6.319 12.185-9.977 12.185zM40.756 51.77c-2.683-.674-5.494-1.615-8.352-2.8a72.86 72.86 0 0 0 5.134-2.706 81.332 81.332 0 0 0 4.937-3.101c-.395 3.148-.987 6.04-1.72 8.607zm17.191-2.114c-1.115 1.94-3.752 3.09-7.469 3.276a2.885 2.885 0 0 0-2.776-2.068 2.873 2.873 0 0 0-2.672 1.777c-.848-.128-1.719-.29-2.601-.488.882-3.113 1.544-6.597 1.94-10.326 3.043-2.219 5.737-4.553 8.014-6.888 5.39 5.994 7.388 11.546 5.564 14.717zM34.925 33.685a4.646 4.646 0 1 1-4.646-4.646 4.645 4.645 0 0 1 4.646 4.646z"/></svg>
