<svg class="css-8aabad" viewBox="0 0 369.655 67.371"><path xmlns="http://www.w3.org/2000/svg" fill="#14213d" d="M59.445 16.843c-1.626-2.823-5.273-4.182-10.117-4.182-2.242 0-4.739.29-7.41.871A38.303 38.303 0 0 0 40.244 9.2a2.91 2.91 0 0 0 .883-2.811 2.91 2.91 0 0 0-2.823-2.242c-.22 0-.441.023-.662.07-.081.023-.174.046-.256.092C35.297 1.57 32.857 0 30.28 0c-4.763 0-8.991 5.32-11.64 13.532-2.671-.58-5.168-.87-7.41-.87-4.844 0-8.491 1.358-10.117 4.18-2.382 4.124.104 10.443 5.9 16.843-1.335 1.464-2.485 2.916-3.438 4.345a2.905 2.905 0 0 0-3.578 2.823c0 .859.372 1.637.976 2.16-1.022 2.88-1.045 5.47.14 7.515 1.626 2.823 5.273 4.182 10.117 4.182 2.242 0 4.739-.29 7.41-.871 2.649 8.212 6.877 13.532 11.64 13.532 4.762 0 8.99-5.32 11.638-13.532 1 .22 1.987.395 2.94.534 0 .012.01.035.01.046a2.924 2.924 0 0 0 2.835 2.254c.21 0 .43-.023.65-.081a2.89 2.89 0 0 0 2.103-1.905c4.286-.198 7.492-1.557 8.99-4.159 2.382-4.123-.104-10.442-5.9-16.843 5.796-6.4 8.282-12.719 5.9-16.842zm-10.117-2.44c4.321 0 7.388 1.174 8.62 3.31 1.823 3.172-.175 8.724-5.565 14.718-2.277-2.335-4.971-4.67-8.015-6.888-.395-3.729-1.057-7.214-1.94-10.326 2.475-.535 4.798-.814 6.9-.814zm-4.75 13.451c2.555 1.929 4.773 3.892 6.644 5.831-1.87 1.94-4.09 3.903-6.645 5.832.151-1.894.221-3.845.221-5.832 0-1.986-.07-3.937-.22-5.83zm-1.522 5.831c0 2.51-.116 4.914-.326 7.19a75.842 75.842 0 0 1-6.063 3.88 75.669 75.669 0 0 1-6.388 3.287 75.669 75.669 0 0 1-6.39-3.287 73.266 73.266 0 0 1-6.062-3.903 78.377 78.377 0 0 1-.326-7.167c0-2.497.116-4.89.326-7.166a73.277 73.277 0 0 1 6.063-3.903 75.628 75.628 0 0 1 6.389-3.287 75.628 75.628 0 0 1 6.388 3.287 75.842 75.842 0 0 1 6.063 3.88 78.7 78.7 0 0 1 .326 7.19zm-.581-9.478a81.31 81.31 0 0 0-4.937-3.101 72.86 72.86 0 0 0-5.134-2.707c2.858-1.185 5.669-2.125 8.352-2.8.732 2.568 1.324 5.46 1.719 8.608zM30.279 1.742c1.94 0 3.902 1.255 5.703 3.566a2.887 2.887 0 0 0-.511 2.393 2.91 2.91 0 0 0 2.822 2.254c.128 0 .267-.012.395-.035a36.06 36.06 0 0 1 1.568 4.007c-3.16.79-6.528 1.963-9.977 3.485-3.45-1.522-6.819-2.695-9.978-3.485 2.497-7.666 6.319-12.185 9.978-12.185zM19.8 15.6c2.683.674 5.494 1.614 8.352 2.8a72.849 72.849 0 0 0-5.134 2.706 81.296 81.296 0 0 0-4.937 3.101c.395-3.148.987-6.04 1.72-8.607zM5.91 29.632c-3.636-4.902-4.844-9.235-3.3-11.918 1.232-2.137 4.299-3.31 8.62-3.31 2.102 0 4.425.278 6.9.813-.883 3.112-1.545 6.597-1.94 10.326-3.044 2.218-5.727 4.542-7.992 6.865a37.534 37.534 0 0 1-2.288-2.776zm10.059 9.861c-2.45-1.87-4.658-3.821-6.586-5.808 1.928-1.986 4.135-3.937 6.586-5.807-.14 1.881-.21 3.833-.21 5.807s.07 3.927.21 5.808zm-4.74 13.474c-4.32 0-7.387-1.173-8.618-3.31-.871-1.51-.871-3.554-.046-5.924.116.012.22.023.336.023 1.603 0 2.904-1.3 2.904-2.904 0-.743-.279-1.405-.732-1.928.256-.395.535-.79.837-1.185a37.554 37.554 0 0 1 2.288-2.776c2.265 2.323 4.948 4.646 7.992 6.865.395 3.729 1.057 7.213 1.94 10.326-2.475.535-4.798.813-6.9.813zm6.854-9.803a81.319 81.319 0 0 0 4.937 3.101 72.849 72.849 0 0 0 5.134 2.707c-2.858 1.184-5.669 2.125-8.352 2.8-.732-2.568-1.324-5.46-1.719-8.608zm12.197 22.465c-3.66 0-7.481-4.519-9.978-12.185 3.16-.79 6.528-1.963 9.978-3.485 3.45 1.522 6.818 2.695 9.977 3.485-2.497 7.666-6.319 12.185-9.977 12.185zM40.756 51.77c-2.683-.674-5.494-1.615-8.352-2.8a72.86 72.86 0 0 0 5.134-2.706 81.332 81.332 0 0 0 4.937-3.101c-.395 3.148-.987 6.04-1.72 8.607zm17.191-2.114c-1.115 1.94-3.752 3.09-7.469 3.276a2.885 2.885 0 0 0-2.776-2.068 2.873 2.873 0 0 0-2.672 1.777c-.848-.128-1.719-.29-2.601-.488.882-3.113 1.544-6.597 1.94-10.326 3.043-2.219 5.737-4.553 8.014-6.888 5.39 5.994 7.388 11.546 5.564 14.717zM34.925 33.685a4.646 4.646 0 1 1-4.646-4.646 4.645 4.645 0 0 1 4.646 4.646z"/><path fill="#14213d" d="m98.197 48.98-1.207-2.693h-9.705c-4.04 0-7.29-3.297-7.29-7.29v-20.71c0-3.994 3.25-7.29 7.29-7.29h11.144c3.993 0 7.29 3.296 7.29 7.29v20.71c0 3.204-2.182 6.083-5.293 7.011l-1.254.325 1.393 3.111h-1.672c-.278 0-.603-.232-.696-.464zm.929-4.783c2.368-.325 4.179-2.414 4.179-4.829V17.915a4.875 4.875 0 0 0-4.876-4.875H87.285a4.875 4.875 0 0 0-4.876 4.875v21.453a4.875 4.875 0 0 0 4.876 4.876h8.776l-1.997-4.458h1.672c.278 0 .603.186.743.418l1.81 4.133zm12.258-3.947V22.791h1.579c.279 0 .51.232.51.51v17.135a3.647 3.647 0 0 0 3.67 3.668h7.01c1.997 0 3.623-1.625 3.623-3.668V23.302c0-.279.232-.511.51-.511h1.58v17.46c0 3.203-2.555 5.804-5.712 5.804h-7.012c-3.204 0-5.758-2.6-5.758-5.805zm35.383-17.459c3.204 0 5.758 2.647 5.758 5.85v16.903c0 .279-.232.51-.51.51h-11.656c-3.204 0-5.758-2.6-5.758-5.804v-2.414c0-3.25 2.554-5.851 5.758-5.851h9.566c.278 0 .464-.186.51-.51v-3.019c0-2.043-1.625-3.715-3.668-3.715h-9.704c-.233 0-.465-.232-.465-.51v-1.44h10.17zm-6.408 21.22h10.077V33.75c-.093.092-.233.185-.372.185h-9.705c-2.043 0-3.668 1.672-3.668 3.715v2.693a3.647 3.647 0 0 0 3.668 3.669zm34.13 1.533V28.456c0-2.043-1.672-3.715-3.669-3.715h-10.169a.515.515 0 0 0-.51.511v20.292c0 .279-.233.51-.511.51h-1.58V24.882c0-1.115.93-2.09 2.044-2.09h10.726c3.158 0 5.758 2.647 5.758 5.85v17.414h-1.625c-.232 0-.464-.232-.464-.511zm17.738-1.44c.232 0 .464.233.464.511v1.44h-4.597c-3.204 0-5.758-2.6-5.758-5.851V11.136h1.579c.279 0 .51.232.51.51v12.12c.047-.51.65-.882 1.3-.882h5.666v1.393c0 .279-.232.51-.51.51h-6.455v15.65a3.676 3.676 0 0 0 3.668 3.667h4.133zm4.69-3.854V22.791h1.578c.279 0 .511.232.511.51v17.135a3.647 3.647 0 0 0 3.669 3.668h7.011c1.997 0 3.622-1.625 3.622-3.668V23.302c0-.279.232-.511.51-.511h1.58v17.46c0 3.203-2.554 5.804-5.712 5.804h-7.011c-3.204 0-5.758-2.6-5.758-5.805zm45.18-17.459c3.158 0 5.758 2.647 5.758 5.85v17.414h-1.625a.515.515 0 0 1-.51-.511V28.456c0-2.043-1.626-3.715-3.623-3.715h-7.336c.418.186.743.697.743 1.3v20.014h-1.58a.515.515 0 0 1-.51-.511V25.577a.832.832 0 0 0-.836-.836h-8.869a.515.515 0 0 0-.51.511v20.292c0 .279-.233.51-.511.51h-1.579V24.882c0-1.115.929-2.09 2.043-2.09h18.945zm13.28-4.69v5.572c0 .279.233.604.465.65l20.896 6.92c.696.231 1.3 1.02 1.3 1.764v5.757c0 4.04-3.297 7.29-7.29 7.29h-18.203V44.57c0-.279.232-.511.511-.511h17.692a4.875 4.875 0 0 0 4.875-4.876v-5.618c0-.279-.232-.557-.51-.65l-20.896-6.919c-.697-.232-1.254-1.022-1.254-1.765V18.52c0-4.04 3.25-7.29 7.29-7.29h16.763v1.486c0 .278-.232.51-.51.51h-16.253a4.875 4.875 0 0 0-4.875 4.876zm27.258 22.15V28.687c0-3.204 2.554-5.804 5.758-5.804h9.519v1.393c0 .279-.186.51-.465.51h-9.054c-2.043 0-3.669 1.672-3.669 3.715v11.934a3.647 3.647 0 0 0 3.669 3.668h9.054c.279 0 .465.233.465.511v1.44h-9.52c-3.203 0-5.757-2.6-5.757-5.805zm33.2 6.129h-7.011c-3.204 0-5.758-2.6-5.758-5.805V28.363c0-3.204 2.554-5.85 5.758-5.85h7.011c3.158 0 5.712 2.646 5.712 5.85v12.212c0 3.204-2.554 5.805-5.712 5.805zm0-21.917h-7.011c-2.043 0-3.668 1.671-3.668 3.714v12.584a3.647 3.647 0 0 0 3.668 3.668h7.011c1.997 0 3.622-1.625 3.622-3.668V28.177c0-2.043-1.625-3.714-3.622-3.714zm23.914-1.626c3.204 0 5.758 2.369 5.758 5.712v11.84c0 3.251-2.554 5.666-5.758 5.666h-9.054c-.65 0-1.208-.372-1.3-.883v11.702c0 .279-.233.51-.511.51h-1.58V23.349c0-.278.233-.51.512-.51h11.933zm3.669 17.553V28.456c0-2.043-1.626-3.715-3.669-3.715h-10.355v18.574a.89.89 0 0 0 .79.79h9.565c2.043 0 3.669-1.672 3.669-3.715zm13.42 5.665c-3.205 0-5.759-2.09-5.759-5.619V28.41c0-3.483 2.461-5.573 5.619-5.573h7.337c3.157 0 5.618 2.09 5.618 5.573v6.315c0 .325-.232.557-.51.557h-14.906c-.418 0-.79-.232-1.022-.557h-.046v5.665a3.647 3.647 0 0 0 3.668 3.668h11.934c.278 0 .51.232.51.51v1.487h-12.444zm7.197-21.314h-7.337c-1.997 0-3.53 1.672-3.53 3.715v4.365c0 .278.187.464.512.51h13.884v-4.875c0-2.043-1.533-3.715-3.53-3.715z"/></svg>
